# xmcd CD database file
#
# Track frame offsets:
#	150
#	15576
#	25515
#	39834
#	52530
#	64486
#	75731
#	89067
#	102745
#	115396
#
# Disc length: 1729 seconds
#
# Revision: 0
# Processed by: cddbd v1.5.2PL0 Copyright (c) Steve Scherf et al.
# Submitted via: CDex 1.51
#
DISCID=7706bf0a
DTITLE=Ray Stevens - Sings Sinatra...Say What?
DYEAR=2008
DGENRE=Country
TTITLE0=I've Got You Under My Skin
TTITLE1=Night and Day
TTITLE2=I Get a Kick out of You
TTITLE3=All the Way
TTITLE4=High Hopes
TTITLE5=Witchcraft
TTITLE6=The Tender Trap
TTITLE7=Young at Heart
TTITLE8=Strangers in the Night
TTITLE9=That's Life
EXTD=YEAR: 2008
EXTT0=
EXTT1=
EXTT2=
EXTT3=
EXTT4=
EXTT5=
EXTT6=
EXTT7=
EXTT8=
EXTT9=
PLAYORDER=
